<?xml version="1.0" standalone="no"?><!DOCTYPE svg PUBLIC "-//W3C//DTD SVG 1.1//EN" "http://www.w3.org/Graphics/SVG/1.1/DTD/svg11.dtd"><svg t="1538985266717" class="icon" style="" viewBox="0 0 1024 1024" version="1.1" xmlns="http://www.w3.org/2000/svg" p-id="1430" xmlns:xlink="http://www.w3.org/1999/xlink" width="200" height="200"><defs><style type="text/css"></style></defs><path d="M512 0a512 512 0 1 0 512 512 512 512 0 0 0-512-512z m64 810.88a21.12 21.12 0 0 1-42.88 0V512a21.12 21.12 0 0 1 6.4-15.36l219.52-219.52H264.96l219.52 219.52a21.12 21.12 0 0 1 6.4 15.36v384A21.12 21.12 0 0 1 448 896V520.96l-249.6-249.6a21.12 21.12 0 0 1 15.36-36.48h597.12a21.12 21.12 0 0 1 15.36 36.48L576 520.96z m234.88-21.12h-149.76a21.12 21.12 0 0 1 0-42.88h149.12a21.12 21.12 0 1 1 0 42.88z m0-106.88h-149.76a21.12 21.12 0 0 1 0-42.88h149.12a21.12 21.12 0 0 1 0 42.88z m0-106.88h-149.76a21.12 21.12 0 0 1 0-42.88h149.12a21.12 21.12 0 0 1 0 42.88z" fill="#414D5D" p-id="1431"></path></svg>