<?xml version="1.0" standalone="no"?><!DOCTYPE svg PUBLIC "-//W3C//DTD SVG 1.1//EN" "http://www.w3.org/Graphics/SVG/1.1/DTD/svg11.dtd"><svg t="1539054946793" class="icon" style="" viewBox="0 0 1040 1024" version="1.1" xmlns="http://www.w3.org/2000/svg" p-id="1914" xmlns:xlink="http://www.w3.org/1999/xlink" width="203.125" height="200"><defs><style type="text/css"></style></defs><path d="M1033.333758 43.576175a22.548447 22.548447 0 0 0-16.044088-5.637112s-25.583815 0-65.477221 6.070736V21.894976a21.681199 21.681199 0 0 0-22.982071-21.681199C867.255772 3.682768 601.877895 24.930344 520.356586 116.858628 442.737893 25.363968 173.4574 4.116392 111.44917 0.213777A21.681199 21.681199 0 0 0 86.732603 21.894976V43.576175C47.706445 40.107183 22.989878 38.372687 22.989878 38.372687A22.548447 22.548447 0 0 0 6.945791 43.576175a21.681199 21.681199 0 0 0-6.937984 16.477711v839.496031a21.681199 21.681199 0 0 0 23.415695 21.681199c176.918585-15.610463 461.809542-6.937984 476.986381 84.556677a20.813951 20.813951 0 0 0 0 3.468992 21.247575 21.247575 0 0 0 0 3.902615v2.601744l3.468992 3.035368H530.329938l3.468992-2.601744 2.16812-2.601744 2.16812-3.468991a21.247575 21.247575 0 0 0 0-3.468992 20.380327 20.380327 0 0 0 0-2.601744c13.008719-91.061036 298.3333-100.16714 476.986381-84.556677a20.813951 20.813951 0 0 0 16.477711-5.637112 21.681199 21.681199 0 0 0 6.937984-16.044087V60.053886a21.681199 21.681199 0 0 0-5.203488-16.477711z m-124.883707 0v719.815811c-22.114823 0-58.539238-3.035368-100.600764-3.035368-130.087195 0-216.811991 15.610463-266.245126 45.964143V165.424514c9.539728-65.043597 212.909376-107.972372 366.84589-121.848339zM130.095002 43.576175c153.936514 12.141472 357.306162 55.070246 366.412265 117.078475v647.400607c-48.565886-30.787303-137.892427-45.964142-266.245125-45.964143-43.362398 0-78.052317 0-100.600764 3.035368zM43.370205 876.134222V83.903205L86.732603 86.938573v701.603604a21.681199 21.681199 0 0 0 6.937984 16.044088 21.247575 21.247575 0 0 0 16.477711 5.637111s53.769374-4.769864 120.113844-4.769863c159.573626 0 260.17439 25.583815 266.245125 68.078965v60.707358C393.304759 858.355639 130.095002 869.629862 43.370205 876.134222z m953.972762 0c-86.724797-6.070736-349.934554-17.778583-454.871558 58.105614v-60.707358c6.937984-43.362398 106.237876-68.078965 266.245126-68.078965 66.778093 0 119.680219 4.769864 120.113843 4.769863a20.813951 20.813951 0 0 0 16.477711-5.637111 21.681199 21.681199 0 0 0 6.937984-16.044088V86.938573l43.362398-4.33624z" fill="#231F20" p-id="1915"></path></svg>