<?xml version="1.0" standalone="no"?><!DOCTYPE svg PUBLIC "-//W3C//DTD SVG 1.1//EN" "http://www.w3.org/Graphics/SVG/1.1/DTD/svg11.dtd"><svg t="1540197737799" class="icon" style="" viewBox="0 0 1024 1024" version="1.1" xmlns="http://www.w3.org/2000/svg" p-id="1721" xmlns:xlink="http://www.w3.org/1999/xlink" width="200" height="200"><defs><style type="text/css"></style></defs><path d="M353.8 503.3l-52.9 158.6c-8.4 25.3 5.2 52.7 30.5 61.1 9.9 3.3 20.7 3.3 30.6 0l158.6-52.9c7.3-2.4 13.9-6.5 19.3-11.9l392.5-392.5c19.2-19.2 19.3-50.4 0-69.7L827.9 91.5c-19.2-19.2-50.4-19.3-69.7 0L365.7 484c-5.4 5.4-9.5 12-11.9 19.3z m67 28.1l372.3-372.2 71.7 71.7-372.2 372.3L385 639l35.8-107.6z" p-id="1722"></path><path d="M922.8 403.3c-20 0-36.2 16.2-36.2 36.2v434.9c0 6.7-5.4 12.1-12.1 12.1H149.6c-6.7 0-12.1-5.4-12.1-12.1V149.6c0-6.7 5.4-12.1 12.1-12.1h434.9c20 0 36.2-16.2 36.2-36.2S604.5 65 584.5 65H149.6C102.9 65 65 102.9 65 149.6v724.9c0 46.7 37.9 84.6 84.6 84.6h724.9c46.7 0 84.6-37.9 84.6-84.6v-435c-0.1-20-16.3-36.2-36.3-36.2z" p-id="1723"></path></svg>