<?xml version="1.0" standalone="no"?><!DOCTYPE svg PUBLIC "-//W3C//DTD SVG 1.1//EN" "http://www.w3.org/Graphics/SVG/1.1/DTD/svg11.dtd"><svg t="1537953190222" class="icon" style="" viewBox="0 0 1024 1024" version="1.1" xmlns="http://www.w3.org/2000/svg" p-id="2559" xmlns:xlink="http://www.w3.org/1999/xlink" width="200" height="200"><defs><style type="text/css"></style></defs><path d="M378.547 839.051c-14.084 0-28.168-5.361-38.891-16.082L201.064 684.375c-10.357-10.356-16.062-24.168-16.062-38.891 0-14.722 5.704-28.534 16.062-38.891L635.827 171.83c10.356-10.357 24.169-16.061 38.892-16.061 14.722 0 28.534 5.703 38.891 16.061l138.593 138.593c21.443 21.444 21.443 56.337 0.001 77.781L726.907 513.499c-5.857 5.857-15.355 5.857-21.213 0-5.858-5.857-5.858-15.355 0-21.213L830.99 366.991c9.746-9.747 9.746-25.608 0-35.355L692.397 193.042c-9.749-9.748-25.609-9.748-35.356 0L222.277 627.806c-4.69 4.69-7.274 10.969-7.274 17.678s2.584 12.987 7.274 17.678L360.87 801.756c9.747 9.747 25.608 9.747 35.355 0l135.97-135.97c5.857-5.857 15.355-5.857 21.213 0 5.858 5.857 5.858 15.355 0 21.213l-135.97 135.97c-10.723 10.721-24.807 16.082-38.891 16.082z" fill="#1A171B" p-id="2560"></path><path d="M577.301 656.892a14.95 14.95 0 0 1-10.606-4.394c-5.858-5.857-5.858-15.355 0-21.213l36.5-36.5c5.857-5.857 15.355-5.857 21.213 0 5.858 5.857 5.858 15.355 0 21.213l-36.5 36.5a14.954 14.954 0 0 1-10.607 4.394zM646.301 587.892a14.95 14.95 0 0 1-10.606-4.394c-5.858-5.857-5.858-15.355 0-21.213l33.5-33.5c5.857-5.857 15.355-5.857 21.213 0 5.858 5.857 5.858 15.355 0 21.213l-33.5 33.5a14.954 14.954 0 0 1-10.607 4.394zM170.714 868.231a15.002 15.002 0 0 1-14.856-17.064l29.14-209.817c1.139-8.204 8.696-13.944 16.921-12.794 8.205 1.14 13.934 8.715 12.794 16.921l-26.411 190.168 193.669-26.897c8.21-1.127 15.782 4.589 16.921 12.794 1.14 8.205-4.589 15.781-12.794 16.921L172.78 868.089c-0.69 0.095-1.38 0.142-2.066 0.142zM446.957 775.68a14.95 14.95 0 0 1-10.606-4.394L254.166 589.102c-5.858-5.857-5.858-15.355 0-21.213 5.857-5.857 15.355-5.857 21.213 0l182.185 182.185c5.858 5.857 5.858 15.355 0 21.213a14.957 14.957 0 0 1-10.607 4.393zM767.264 455.375a14.95 14.95 0 0 1-10.606-4.394L574.472 268.796c-5.858-5.857-5.858-15.355 0-21.213 5.857-5.857 15.355-5.857 21.213 0L777.87 429.768c5.858 5.857 5.858 15.355 0 21.213a14.95 14.95 0 0 1-10.606 4.394zM408.539 630.493a14.95 14.95 0 0 1-10.606-4.394c-5.858-5.857-5.858-15.355 0-21.213l212.121-212.122c5.857-5.857 15.355-5.857 21.213 0 5.858 5.857 5.858 15.355 0 21.213L419.146 626.099a14.954 14.954 0 0 1-10.607 4.394z" fill="#1A171B" p-id="2561"></path></svg>