<?xml version="1.0" standalone="no"?><!DOCTYPE svg PUBLIC "-//W3C//DTD SVG 1.1//EN" "http://www.w3.org/Graphics/SVG/1.1/DTD/svg11.dtd"><svg t="1537953232470" class="icon" style="" viewBox="0 0 1024 1024" version="1.1" xmlns="http://www.w3.org/2000/svg" p-id="3257" xmlns:xlink="http://www.w3.org/1999/xlink" width="200" height="200"><defs><style type="text/css"></style></defs><path d="M935.758617 127.987501 703.981252 127.987501l0-42.195879c0-47.395372-38.39625-85.791622-85.791622-85.791622L405.81037 0c-47.395372 0-85.791622 38.39625-85.791622 85.791622l0 42.195879L88.241383 127.987501c-48.695245 0-88.191388 39.496143-88.191388 88.191388l0 79.692218c0 48.695245 39.496143 88.191388 88.191388 88.191388L128.037496 384.062494l0 525.448687c0 63.293819 51.294991 114.488819 114.488819 114.488819l538.847378 0c63.293819 0 114.488819-51.294991 114.488819-114.488819L895.862513 383.962504l39.796114 0c48.695245 0 88.191388-39.496143 88.191388-88.191388l0-79.692218C1023.950005 167.383654 984.453862 127.987501 935.758617 127.987501zM384.012499 85.691632c0-11.998828 9.799043-21.797871 21.797871-21.797871l212.47925 0c11.998828 0 21.797871 9.799043 21.797871 21.797871l0 42.195879L384.012499 127.887511 384.012499 85.691632zM831.968753 909.3112c0 27.897276-22.697783 50.495069-50.495069 50.495069L242.526316 959.806269c-27.897276 0-50.495069-22.697783-50.495069-50.495069L192.031247 383.962504l127.987501 0 0 479.95313c0 17.698272 14.298604 31.996875 31.996875 31.996875s31.996875-14.298604 31.996875-31.996875l0-479.95313 95.990626 0 0 479.95313c0 17.698272 14.298604 31.996875 31.996875 31.996875 17.698272 0 31.996875-14.298604 31.996875-31.996875l0-479.95313 95.990626 0 0 479.95313c0 17.698272 14.298604 31.996875 31.996875 31.996875s31.996875-14.298604 31.996875-31.996875l0-479.95313 127.987501 0L831.968753 909.3112zM959.956254 295.771116c0 13.298701-10.798945 24.197637-24.197637 24.197637L895.962504 319.968753l-255.975002 0L384.012499 319.968753 128.037496 319.968753l-39.796114 0c-13.298701 0-24.197637-10.798945-24.197637-24.197637l0-79.692218c0-13.298701 10.798945-24.197637 24.197637-24.197637L320.018748 191.881262l383.962504 0 231.777365 0c13.298701 0 24.197637 10.798945 24.197637 24.197637L959.956254 295.771116z" p-id="3258"></path></svg>