<?xml version="1.0" standalone="no"?><!DOCTYPE svg PUBLIC "-//W3C//DTD SVG 1.1//EN" "http://www.w3.org/Graphics/SVG/1.1/DTD/svg11.dtd"><svg t="1536051857954" class="icon" style="" viewBox="0 0 1024 1024" version="1.1" xmlns="http://www.w3.org/2000/svg" p-id="2621" xmlns:xlink="http://www.w3.org/1999/xlink" width="200" height="200"><defs><style type="text/css"></style></defs><path d="M512.751 32.998c-264.022 0-478.089 214.066-478.089 478.090 0 264.022 214.066 478.090 478.089 478.090 264.022 0 478.090-214.067 478.090-478.090 0-264.023-214.067-478.090-478.090-478.090zM512.751 957.305c-246.048 0-446.217-200.169-446.217-446.217 0-246.049 200.169-446.218 446.217-446.218 246.049 0 446.217 200.169 446.217 446.218 0 246.048-200.167 446.217-446.217 446.217zM696.019 306.010l-183.299 183.298-183.236-183.298-21.819 21.852 183.267 183.251-183.252 183.236 21.804 21.806 183.236-183.235 183.299 183.25 21.805-21.819-183.239-183.237 183.253-183.298-21.819-21.805z" p-id="2622" fill="#cdcdcd"></path></svg>