<?xml version="1.0" standalone="no"?><!DOCTYPE svg PUBLIC "-//W3C//DTD SVG 1.1//EN" "http://www.w3.org/Graphics/SVG/1.1/DTD/svg11.dtd"><svg t="1540350044202" class="icon" style="" viewBox="0 0 1024 1024" version="1.1" xmlns="http://www.w3.org/2000/svg" p-id="1904" xmlns:xlink="http://www.w3.org/1999/xlink" width="200" height="200"><defs><style type="text/css"></style></defs><path d="M614.461 910.645c-1.627 3.435-5.123 6.307-10.387 8.033l-70.028 22.846c-12.572 4.09-19.345-2.529-15.188-14.85l23.36-68.466c1.753-5.183 4.74-8.585 8.263-10.196l220.836-215.894 64.026 62.594L614.46 910.645z m-163.752-28.22L771.31 568.982V291.865H611.31c-35.347-0.011-64.004-28.024-64.009-62.579V68.92H223.295c-50.852 0-92.06 40.284-92.06 89.973V812.01c0 18.678 7.603 36.592 21.105 49.793 13.51 13.21 31.83 20.628 50.929 20.623h247.44zM616.083 80.7l143.202 140c20.323 19.859 13.462 35.959-15.22 35.959H631.276c-28.706-0.011-51.989-22.748-52.01-50.804V95.61c0-28.083 16.483-34.718 36.777-14.87l0.04-0.039z m-356.83 332.41c0.012-17.281 14.337-31.284 32.01-31.3H611.31c17.674 0.021 31.983 14.019 31.988 31.3-0.016 17.264-14.325 31.261-31.988 31.278H291.27c-17.668-0.011-31.988-14.009-32.016-31.278z m0 125.14c0.028-17.27 14.348-31.257 32.01-31.273H611.31c17.663 0.016 31.972 14.014 31.988 31.272-0.005 17.281-14.325 31.279-31.988 31.295H291.27c-17.668-0.01-32.004-14.003-32.016-31.295z m526.721 80.809l37.018-36.172c9.356-9.159 24.528-9.175 33.91-0.049l31.95 31.218c9.34 9.175 9.323 24.015-0.048 33.173l-37.018 36.21-65.795-64.37-0.017-0.01z m0 0" p-id="1905"></path></svg>