<?xml version="1.0" standalone="no"?><!DOCTYPE svg PUBLIC "-//W3C//DTD SVG 1.1//EN" "http://www.w3.org/Graphics/SVG/1.1/DTD/svg11.dtd"><svg t="1539310259500" class="icon" style="" viewBox="0 0 1024 1024" version="1.1" xmlns="http://www.w3.org/2000/svg" p-id="1963" xmlns:xlink="http://www.w3.org/1999/xlink" width="200" height="200"><defs><style type="text/css"></style></defs><path d="M976.973307 659.261108L693.749036 513.704387l283.234477-145.55672c41.609504-21.391592 55.999841-69.196085 31.985329-106.233341l-4.357925-6.71549c-24.024717-37.037256-77.738434-49.855881-119.337732-28.474495L602.028502 372.281061V81.177826c0-42.772978-39.313174-77.769051-87.362609-77.769051h-8.715849c-48.059641 0-87.372815 35.006279-87.372814 77.769051v291.113441L135.342753 226.724341c-41.609504-21.381386-95.32322-8.572966-119.337732 28.474495l-4.368131 6.71549c-24.024717 37.037256-9.634381 84.841749 31.975123 106.233341l283.234477 145.55672L43.622219 659.250902c-41.609504 21.391592-55.999841 69.196085-31.975123 106.233341l4.357925 6.71549c24.024717 37.037256 77.728228 49.855881 119.337732 28.464289L418.567024 655.117508v291.113441c0 42.772978 39.313174 77.769051 87.372815 77.769051h8.715849c48.049435 0 87.362609-34.996073 87.362608-77.769051V655.117508l283.234477 145.546514c41.609504 21.391592 95.32322 8.572966 119.337732-28.464289l4.357925-6.71549c24.034923-37.02705 9.644587-84.841749-31.975123-106.223135" fill="#FD6823" p-id="1964"></path></svg>